<svg version="1" xmlns="http://www.w3.org/2000/svg" width="933.333" height="933.333" viewBox="0 0 700 700"><path d="M355 34c-14.8 1.4-19.8 2-24.3 2.9-2.6.5-4.7.6-4.7.2 0-.3-.4-.1-.8.6-.4.6-.7 13.3-.7 28.3.1 30.1.5 28.3-6.6 29.5-5.4.9-10.5 2.4-25.3 7.2-7.6 2.5-14.2 4.1-14.6 3.6-.7-.7-17.2-25.9-26.9-41l-3.3-5.1-3.7 1.5c-28.3 11.8-70 37.8-90.6 56.7-2.7 2.5-5.3 4.5-5.7 4.6-.5 0-.8.4-.8.9 0 .7 12 19.5 26.6 41.8 1.9 2.8 3.4 5.4 3.4 5.7 0 .3-3.2 3.8-7 7.8-3.9 4-10.8 11.9-15.3 17.5-4.5 5.7-8.6 10.3-9.1 10.3s-3.2-1.1-6-2.4c-7.5-3.5-16-7.4-25.6-11.6-7.9-3.5-17.7-7.9-19.1-8.7-1-.5-12 16.9-19.9 31.4-11.3 20.9-20.8 43.8-28.4 68.2l-2.5 8.2 2.5.9c1.4.6 5 2.1 8 3.5s7.8 3.6 10.6 4.9c2.9 1.3 10.9 4.9 17.8 8 14.2 6.3 13.5 5 10.5 19.6-1.4 7.1-2.5 14.2-3 20-.7 7.3-1.4 13.3-1.8 13.6-.1.1-3.3.5-7 .9-3.7.3-7.6.8-8.6 1-2.7.5-7.9 1.3-13.1 2-2.5.3-5.4.8-6.5.9-1.1.2-4.9.8-8.5 1.2-3.6.4-6.8.9-7.2 1-.5.1-1.8.2-2.9.3-2.2.1-2.2.2-1.6 19.3.3 10.6.8 21.3 1.1 23.8 1.2 9.7 1.8 14.4 2.2 16.4.2 1.2.6 3.9.9 6.1 1.1 9.6 6.5 32.6 10.6 45.7 1.9 5.9 2.4 6.7 4.3 6.3 2.3-.5 2.7-.6 27.6-4.1 9.6-1.3 19.5-2.7 22-3l4.6-.5 1.8 5.3c1 2.9 5.4 12.7 9.9 21.7 4.7 9.7 7.6 16.6 7 17-.6.3-3.9 3.1-7.3 6.1-8.7 7.6-9.1 8-14.6 12.5-4.7 3.9-10.3 8.7-15.4 13.2-1.4 1.3-2.8 2.3-3.2 2.3-2.1 0-.2 4.1 6.4 13.8 18.3 26.8 43.1 54.7 64.1 71.9l6.8 5.6 2.2-2c1.2-1.1 9-7.7 17.2-14.7 8.3-7.1 16.5-14.1 18.3-15.7 1.9-1.6 3.8-3.2 4.3-3.5.6-.3 6.4 3.1 12.9 7.5 6.5 4.5 12.1 8.1 12.3 8.1.3 0 3.5 1.8 7.2 4 14.9 9.1 41.9 20.8 61 26.5 12.3 3.7 27.1 7.4 32.5 8.1 2.5.3 5.4.8 6.5 1 2.2.4 6.4 1.2 10.9 1.9 6.2.9 22.8 1.9 34.6 1.9 13.3 0 34.9-1.1 37.1-1.8.8-.3 4-.7 7.1-1 3.2-.3 6.1-.7 6.5-.9.5-.3 2.8-.8 5.3-1.1 7.5-1 10.1-1.6 22.1-4.7l11.7-3.1-.4-3.2c-3.6-27.8-18-64.7-35.9-92.3-5.4-8.2-21.4-29.8-25.1-33.8-1.1-1.1-3.7-4.3-5.9-7-2.1-2.8-4.2-5.2-4.5-5.5-.3-.3-2.3-2.5-4.4-5-8.8-10.1-37.8-41.6-52.1-56.4-1.1-1.2-4.9-5.5-8.5-9.6-3.6-4.1-6.7-7.7-7-8-1.6-1.5-8.4-11.5-11.4-16.8-7.9-14.1-11.2-30.6-8.2-41.9 4-15.2 18.2-29.1 34-33.2 9.5-2.5 24 .2 36.4 6.9 17.4 9.3 43.8 34.3 65 61.6 8.4 10.9 13.5 26.3 13.4 40.6-.2 12.3-4.6 22.4-13.6 31l-4.5 4.3 4.1 6c2.3 3.3 9.9 13.7 17 23.2l12.9 17.2h49c45.2.1 49.2-.1 50.8-1.7 5.5-5.5 13.7-19.1 18.1-30.2 5.5-13.5 13.1-43.1 14.5-56 1.5-13.1 1.8-15.6 2.1-16.1 2.4-4.3 2.5-96.2 0-110.9-.3-1.4-.7-6.6-1-11.5-.3-5-1.2-14-2-20-.8-6.1-1.8-13.8-2.1-17.3-.4-3.5-.8-7.2-1-8.3-.2-1 0-1.9.4-1.9.5 0 5.3 2.1 10.7 4.6 17.1 8 20.3 9.4 20.8 9.4.2 0 5.5 2.4 11.8 5.4 14.4 6.8 21 9.7 21.4 9.3.5-.4-6.7-19.9-10.6-28.7-13.5-30.9-37.6-66.1-60.3-88.1-3.4-3.3-3.7-3.9-2.7-5.9 1.1-2.1 9.4-14.9 22.7-35.3 3.5-5.4 6.3-10.2 6.1-10.6-.2-.7-18.7-16.3-22.3-18.9-.6-.4-3.5-2.5-6.5-4.8-16.4-12.1-39.9-25.8-59.8-35L521.6 60l-6.1 9.3c-3.3 5.1-10.2 15.7-15.2 23.5-5.1 7.8-9.7 14.2-10.2 14.2-.6 0-6.3-1.8-12.8-3.9-6.5-2.1-13.1-4.2-14.8-4.6-1.6-.4-3.8-.9-4.7-1.1-1-.2-2.6-.6-3.5-.8-6-1.4-7.9-2-8.8-2.7-.6-.4-1-11-.9-28.3.1-24.4-.1-27.6-1.5-28-1.9-.6-7.4-1.3-23.1-3-12.4-1.4-52.8-1.7-65-.6z"/></svg>